<svg xmlns="http://www.w3.org/2000/svg" width="116.86" height="32.032" viewBox="0 0 116.86 32.032">
  <g id="グループ_222" data-name="グループ 222" transform="translate(-364.14 -68.514)">
    <path id="パス_198" data-name="パス 198" d="M448.616,70.36a7.947,7.947,0,0,0-3.839-1.695,10.294,10.294,0,0,0-1.744-.151h0A8.759,8.759,0,0,0,437.4,70.36a7,7,0,0,0-.912.937,6.456,6.456,0,0,0-1.312,4.252v17.94a6.233,6.233,0,0,0,2.005,4.992c.071.067.144.132.219.2.1.083.2.156.3.233a6.855,6.855,0,0,0,.854.557,8.185,8.185,0,0,0,1.362.579,10.126,10.126,0,0,0,3.112.478h0c.328,0,.65-.02.97-.049a9.751,9.751,0,0,0,1.911-.37,7.465,7.465,0,0,0,2.7-1.427,7.257,7.257,0,0,0,.718-.705,6.361,6.361,0,0,0,1.5-4.484V91.8H445.6v1.867a3.524,3.524,0,0,1-.1.854,2.757,2.757,0,0,1-.132.4,2.441,2.441,0,0,1-.2.387,2.246,2.246,0,0,1-1.273.92,3.04,3.04,0,0,1-.86.121,2.745,2.745,0,0,1-1.661-.508,2.3,2.3,0,0,1-.186-.157,2.654,2.654,0,0,1-.772-2.017V75.373a2.557,2.557,0,0,1,1.019-2.214,2.759,2.759,0,0,1,1.6-.468,2.859,2.859,0,0,1,1.23.259,2.2,2.2,0,0,1,.978.91,2.5,2.5,0,0,1,.113.226,2.653,2.653,0,0,1,.147.433,3.53,3.53,0,0,1,.1.854v2.111h5.238V75.549A6.228,6.228,0,0,0,448.616,70.36Z"/>
    <path id="パス_199" data-name="パス 199" d="M468.86,79.378l-.053-.047a8.617,8.617,0,0,0-5.583-1.847h0c-.136,0-.27.01-.4.015a8.606,8.606,0,0,0-5.228,1.832c-.173.148-.337.3-.493.461a6.281,6.281,0,0,0-1.73,4.727v8.97a6.285,6.285,0,0,0,1.73,4.728c.156.159.32.312.493.461a7.589,7.589,0,0,0,2.934,1.484,9.91,9.91,0,0,0,1.8.321c.164.014.33.02.5.026.135,0,.269.015.4.015h0c.334,0,.663-.021.989-.051a9.85,9.85,0,0,0,1.522-.264,7.625,7.625,0,0,0,3.072-1.531l.053-.048a6,6,0,0,0,1.634-2.187,7.4,7.4,0,0,0,.536-2.954v-8.97a7.292,7.292,0,0,0-.593-3.089A6.054,6.054,0,0,0,468.86,79.378Zm-3.067,4.965v9.322a2.438,2.438,0,0,1-2.569,2.682,2.474,2.474,0,0,1-2.619-2.682V84.343a2.474,2.474,0,0,1,2.619-2.682A2.438,2.438,0,0,1,465.793,84.343Z"/>
    <path id="パス_200" data-name="パス 200" d="M398.783,70.36a8.014,8.014,0,0,0-3.988-1.725,10.439,10.439,0,0,0-1.6-.121h0a8.759,8.759,0,0,0-5.632,1.846,7.257,7.257,0,0,0-.686.67,6.342,6.342,0,0,0-1.538,4.519v17.94a6.225,6.225,0,0,0,2.224,5.189,7.434,7.434,0,0,0,2.681,1.413,10.159,10.159,0,0,0,2.951.433h0c.3,0,.6-.015.889-.04a9.319,9.319,0,0,0,2.893-.7q.338-.146.651-.317a6.694,6.694,0,0,0,1.15-.789c.173-.149.338-.3.493-.461a6.281,6.281,0,0,0,1.731-4.728V75.549A6.225,6.225,0,0,0,398.783,70.36ZM394.134,96.2a3.015,3.015,0,0,1-.934.143,2.474,2.474,0,0,1-2.618-2.682V75.373a2.474,2.474,0,0,1,2.618-2.682,2.727,2.727,0,0,1,1.49.406,2.178,2.178,0,0,1,.332.259,2.693,2.693,0,0,1,.747,2.017V93.665a2.6,2.6,0,0,1-.929,2.174A2.379,2.379,0,0,1,394.134,96.2Z"/>
    <path id="パス_201" data-name="パス 201" d="M425.574,93.438a21.778,21.778,0,0,0,2.9-9.672l0-.038h-4.5q-.028.387-.072.779c-.058.522-.138,1.045-.238,1.557q-.075.384-.166.758a11.726,11.726,0,0,1-.957,2.666l-3.062-4.2-1.138-1.56a21.608,21.608,0,0,0,2.2-2.3,11.463,11.463,0,0,0,1.215-1.825,9.237,9.237,0,0,0,.444-.964c.107-.276.2-.558.283-.848a9.866,9.866,0,0,0,.353-2.679h0a6.061,6.061,0,0,0-3.819-5.972,8.863,8.863,0,0,0-3.3-.579c-3.9,0-7.016,2.374-7.016,6.991,0,2.638,1.433,4.749,3.705,7.475a16.572,16.572,0,0,0-4.557,5.931,9.38,9.38,0,0,0-.68,3.523c0,5.012,3.459,8.046,8.251,8.046h0a10.79,10.79,0,0,0,2.211-.215,8.677,8.677,0,0,0,1.878-.62,10.891,10.891,0,0,0,3.125-2.287l1.466,2.108.461.663h5.484l-4.6-6.552C425.5,93.562,425.537,93.5,425.574,93.438Zm-7.747,2.406a4.1,4.1,0,0,1-1.948.5,3.864,3.864,0,0,1-1.4-.257,3.98,3.98,0,0,1-2.4-3.92c0-1.759.889-3.518,2.915-5.365l5.089,7.036a10.556,10.556,0,0,1-.727.823A6.261,6.261,0,0,1,417.827,95.844Zm.325-20.647c0,2.111-.84,3.254-2.421,4.793-.25-.3-.475-.583-.687-.865q-.23-.3-.429-.6a5.818,5.818,0,0,1-1.206-3.152,2.4,2.4,0,0,1,4.057-1.968A2.488,2.488,0,0,1,418.152,75.2Z"/>
    <path id="パス_202" data-name="パス 202" d="M481,95.826h-4.874v4.338H481V95.826Z"/>
    <path id="パス_203" data-name="パス 203" d="M379.1,87.088a6.133,6.133,0,0,0-2.23-2.547,6.133,6.133,0,0,0,2.23-2.547,8.675,8.675,0,0,0,.651-3.154c.045-1.625.015-3.269.015-3.269a6.225,6.225,0,0,0-2.224-5.189,8.014,8.014,0,0,0-3.988-1.725,10.44,10.44,0,0,0-1.6-.121h0a10.459,10.459,0,0,0-1.6.121,8.022,8.022,0,0,0-3.988,1.725,6.228,6.228,0,0,0-2.223,5.189s-.03,1.644.015,3.269a8.675,8.675,0,0,0,.651,3.154,6.126,6.126,0,0,0,2.23,2.547,6.126,6.126,0,0,0-2.23,2.547,8.675,8.675,0,0,0-.651,3.154c-.045,1.625-.015,3.269-.015,3.269a6.228,6.228,0,0,0,2.223,5.189,8.013,8.013,0,0,0,3.988,1.725,10.459,10.459,0,0,0,1.6.121h0a10.44,10.44,0,0,0,1.6-.121,8.005,8.005,0,0,0,3.988-1.725,6.225,6.225,0,0,0,2.224-5.189s.03-1.644-.015-3.269A8.675,8.675,0,0,0,379.1,87.088Zm-4.547,4.356v2.221a2.473,2.473,0,0,1-2.618,2.682,2.719,2.719,0,0,1-1.49-.406,2.181,2.181,0,0,1-.332-.259,2.693,2.693,0,0,1-.747-2.017V89.223a2.473,2.473,0,0,1,2.618-2.682,2.719,2.719,0,0,1,1.49.406,2.181,2.181,0,0,1,.332.259,2.693,2.693,0,0,1,.747,2.017Zm0-13.828v2.221a2.473,2.473,0,0,1-2.618,2.682,2.727,2.727,0,0,1-1.49-.4,2.252,2.252,0,0,1-.332-.26,2.693,2.693,0,0,1-.747-2.017V75.395a2.473,2.473,0,0,1,2.618-2.682,2.719,2.719,0,0,1,1.49.406,2.181,2.181,0,0,1,.332.259,2.693,2.693,0,0,1,.747,2.017Z"/>
  </g>
</svg>
